<?xml version="1.0" encoding="UTF-8"?>
<!DOCTYPE svg PUBLIC "-//W3C//DTD SVG 1.1//EN" "http://www.w3.org/Graphics/SVG/1.1/DTD/svg11.dtd">
<svg xmlns="http://www.w3.org/2000/svg" xmlns:xlink="http://www.w3.org/1999/xlink" xmlns:ev="http://www.w3.org/2001/xml-events" version="1.1" baseProfile="full" width="360px" height="486px" viewBox="-180.000000 -162.000000 360.000000 486.000000">
<defs>
<style type="text/css"><![CDATA[
text{font-family:Courier,monotype;font-size:15.000000px;stroke:none
]]></style>
</defs>
<g transform="
translate(0.000000,162.000000), 
scale(1.000000,-1.000000)
" 
>
<g transform="
translate(-153.000000,-153.000000), 
scale(1.000000,1.000000)
" 
>
<polygon points="
-9.000000, 
9.000000, 
9.000000, 
9.000000, 
9.000000, 
-9.000000, 
-9.000000, 
-9.000000" 
fill="rgb(0,153,238)" 
fill-opacity="1.000000" 
stroke="none" 
/>
</g>
<g transform="
translate(-63.000000,-153.000000), 
scale(1.000000,1.000000)
" 
>
<polygon points="
-9.000000, 
9.000000, 
9.000000, 
9.000000, 
9.000000, 
-9.000000, 
-9.000000, 
-9.000000" 
fill="rgb(0,153,238)" 
fill-opacity="1.000000" 
stroke="none" 
/>
</g>
<g transform="
translate(-171.000000,-45.000000), 
scale(1.000000,1.000000)
" 
>
<polygon points="
-9.000000, 
9.000000, 
9.000000, 
9.000000, 
9.000000, 
-9.000000, 
-9.000000, 
-9.000000" 
fill="rgb(0,153,238)" 
fill-opacity="1.000000" 
stroke="none" 
/>
</g>
<g transform="
translate(-171.000000,-27.000000), 
scale(1.000000,1.000000)
" 
>
<polygon points="
-9.000000, 
9.000000, 
9.000000, 
9.000000, 
9.000000, 
-9.000000, 
-9.000000, 
-9.000000" 
fill="rgb(0,153,238)" 
fill-opacity="1.000000" 
stroke="none" 
/>
</g>
<g transform="
translate(-63.000000,-135.000000), 
scale(1.000000,1.000000)
" 
>
<polygon points="
-9.000000, 
9.000000, 
9.000000, 
9.000000, 
9.000000, 
-9.000000, 
-9.000000, 
-9.000000" 
fill="rgb(0,153,238)" 
fill-opacity="1.000000" 
stroke="none" 
/>
</g>
<g transform="
translate(-9.000000,-135.000000), 
scale(1.000000,1.000000)
" 
>
<polygon points="
-9.000000, 
9.000000, 
9.000000, 
9.000000, 
9.000000, 
-9.000000, 
-9.000000, 
-9.000000" 
fill="rgb(0,153,238)" 
fill-opacity="1.000000" 
stroke="none" 
/>
</g>
<g transform="
translate(-135.000000,-117.000000), 
scale(1.000000,1.000000)
" 
>
<polygon points="
-9.000000, 
9.000000, 
9.000000, 
9.000000, 
9.000000, 
-9.000000, 
-9.000000, 
-9.000000" 
fill="rgb(0,153,238)" 
fill-opacity="1.000000" 
stroke="none" 
/>
</g>
<g transform="
translate(-9.000000,-117.000000), 
scale(1.000000,1.000000)
" 
>
<polygon points="
-9.000000, 
9.000000, 
9.000000, 
9.000000, 
9.000000, 
-9.000000, 
-9.000000, 
-9.000000" 
fill="rgb(0,153,238)" 
fill-opacity="1.000000" 
stroke="none" 
/>
</g>
<g transform="
translate(-135.000000,-99.000000), 
scale(1.000000,1.000000)
" 
>
<polygon points="
-9.000000, 
9.000000, 
9.000000, 
9.000000, 
9.000000, 
-9.000000, 
-9.000000, 
-9.000000" 
fill="rgb(0,153,238)" 
fill-opacity="1.000000" 
stroke="none" 
/>
</g>
<g transform="
translate(-63.000000,-99.000000), 
scale(1.000000,1.000000)
" 
>
<polygon points="
-9.000000, 
9.000000, 
9.000000, 
9.000000, 
9.000000, 
-9.000000, 
-9.000000, 
-9.000000" 
fill="rgb(255,170,153)" 
fill-opacity="1.000000" 
stroke="none" 
/>
</g>
<g transform="
translate(-63.000000,-81.000000), 
scale(1.000000,1.000000)
" 
>
<polygon points="
-9.000000, 
9.000000, 
9.000000, 
9.000000, 
9.000000, 
-9.000000, 
-9.000000, 
-9.000000" 
fill="rgb(255,170,153)" 
fill-opacity="1.000000" 
stroke="none" 
/>
</g>
<g transform="
translate(-45.000000,-81.000000), 
scale(1.000000,1.000000)
" 
>
<polygon points="
-9.000000, 
9.000000, 
9.000000, 
9.000000, 
9.000000, 
-9.000000, 
-9.000000, 
-9.000000" 
fill="rgb(255,170,153)" 
fill-opacity="1.000000" 
stroke="none" 
/>
</g>
<g transform="
translate(-27.000000,-81.000000), 
scale(1.000000,1.000000)
" 
>
<polygon points="
-9.000000, 
9.000000, 
9.000000, 
9.000000, 
9.000000, 
-9.000000, 
-9.000000, 
-9.000000" 
fill="rgb(255,170,153)" 
fill-opacity="1.000000" 
stroke="none" 
/>
</g>
<g transform="
translate(-63.000000,-63.000000), 
scale(1.000000,1.000000)
" 
>
<polygon points="
-9.000000, 
9.000000, 
9.000000, 
9.000000, 
9.000000, 
-9.000000, 
-9.000000, 
-9.000000" 
fill="rgb(255,170,153)" 
fill-opacity="1.000000" 
stroke="none" 
/>
</g>
<g transform="
translate(-45.000000,-63.000000), 
scale(1.000000,1.000000)
" 
>
<polygon points="
-9.000000, 
9.000000, 
9.000000, 
9.000000, 
9.000000, 
-9.000000, 
-9.000000, 
-9.000000" 
fill="rgb(255,170,153)" 
fill-opacity="1.000000" 
stroke="none" 
/>
</g>
<g transform="
translate(-63.000000,-45.000000), 
scale(1.000000,1.000000)
" 
>
<polygon points="
-9.000000, 
9.000000, 
9.000000, 
9.000000, 
9.000000, 
-9.000000, 
-9.000000, 
-9.000000" 
fill="rgb(255,170,153)" 
fill-opacity="1.000000" 
stroke="none" 
/>
</g>
<g transform="
translate(-99.000000,-27.000000), 
scale(1.000000,1.000000)
" 
>
<polygon points="
-9.000000, 
9.000000, 
9.000000, 
9.000000, 
9.000000, 
-9.000000, 
-9.000000, 
-9.000000" 
fill="rgb(0,153,238)" 
fill-opacity="1.000000" 
stroke="none" 
/>
</g>
<g transform="
translate(-63.000000,-27.000000), 
scale(1.000000,1.000000)
" 
>
<polygon points="
-9.000000, 
9.000000, 
9.000000, 
9.000000, 
9.000000, 
-9.000000, 
-9.000000, 
-9.000000" 
fill="rgb(255,170,153)" 
fill-opacity="1.000000" 
stroke="none" 
/>
</g>
<g transform="
translate(-27.000000,-27.000000), 
scale(1.000000,1.000000)
" 
>
<polygon points="
-9.000000, 
9.000000, 
9.000000, 
9.000000, 
9.000000, 
-9.000000, 
-9.000000, 
-9.000000" 
fill="rgb(0,153,238)" 
fill-opacity="1.000000" 
stroke="none" 
/>
</g>
<g transform="
translate(-99.000000,-9.000000), 
scale(1.000000,1.000000)
" 
>
<polygon points="
-9.000000, 
9.000000, 
9.000000, 
9.000000, 
9.000000, 
-9.000000, 
-9.000000, 
-9.000000" 
fill="rgb(0,153,238)" 
fill-opacity="1.000000" 
stroke="none" 
/>
</g>
<g transform="
translate(-63.000000,-9.000000), 
scale(1.000000,1.000000)
" 
>
<polygon points="
-9.000000, 
9.000000, 
9.000000, 
9.000000, 
9.000000, 
-9.000000, 
-9.000000, 
-9.000000" 
fill="rgb(255,170,153)" 
fill-opacity="1.000000" 
stroke="none" 
/>
</g>
<g transform="
translate(-171.000000,99.000000), 
scale(1.000000,1.000000)
" 
>
<polygon points="
-9.000000, 
9.000000, 
9.000000, 
9.000000, 
9.000000, 
-9.000000, 
-9.000000, 
-9.000000" 
fill="rgb(0,153,238)" 
fill-opacity="1.000000" 
stroke="none" 
/>
</g>
<g transform="
translate(-171.000000,117.000000), 
scale(1.000000,1.000000)
" 
>
<polygon points="
-9.000000, 
9.000000, 
9.000000, 
9.000000, 
9.000000, 
-9.000000, 
-9.000000, 
-9.000000" 
fill="rgb(0,153,238)" 
fill-opacity="1.000000" 
stroke="none" 
/>
</g>
<g transform="
translate(-63.000000,9.000000), 
scale(1.000000,1.000000)
" 
>
<polygon points="
-9.000000, 
9.000000, 
9.000000, 
9.000000, 
9.000000, 
-9.000000, 
-9.000000, 
-9.000000" 
fill="rgb(255,170,153)" 
fill-opacity="1.000000" 
stroke="none" 
/>
</g>
<g transform="
translate(-135.000000,27.000000), 
scale(1.000000,1.000000)
" 
>
<polygon points="
-9.000000, 
9.000000, 
9.000000, 
9.000000, 
9.000000, 
-9.000000, 
-9.000000, 
-9.000000" 
fill="rgb(0,153,238)" 
fill-opacity="1.000000" 
stroke="none" 
/>
</g>
<g transform="
translate(-63.000000,27.000000), 
scale(1.000000,1.000000)
" 
>
<polygon points="
-9.000000, 
9.000000, 
9.000000, 
9.000000, 
9.000000, 
-9.000000, 
-9.000000, 
-9.000000" 
fill="rgb(255,170,153)" 
fill-opacity="1.000000" 
stroke="none" 
/>
</g>
<g transform="
translate(-27.000000,27.000000), 
scale(1.000000,1.000000)
" 
>
<polygon points="
-9.000000, 
9.000000, 
9.000000, 
9.000000, 
9.000000, 
-9.000000, 
-9.000000, 
-9.000000" 
fill="rgb(255,170,153)" 
fill-opacity="1.000000" 
stroke="none" 
/>
</g>
<g transform="
translate(-9.000000,27.000000), 
scale(1.000000,1.000000)
" 
>
<polygon points="
-9.000000, 
9.000000, 
9.000000, 
9.000000, 
9.000000, 
-9.000000, 
-9.000000, 
-9.000000" 
fill="rgb(255,170,153)" 
fill-opacity="1.000000" 
stroke="none" 
/>
</g>
<g transform="
translate(-135.000000,45.000000), 
scale(1.000000,1.000000)
" 
>
<polygon points="
-9.000000, 
9.000000, 
9.000000, 
9.000000, 
9.000000, 
-9.000000, 
-9.000000, 
-9.000000" 
fill="rgb(0,153,238)" 
fill-opacity="1.000000" 
stroke="none" 
/>
</g>
<g transform="
translate(-63.000000,45.000000), 
scale(1.000000,1.000000)
" 
>
<polygon points="
-9.000000, 
9.000000, 
9.000000, 
9.000000, 
9.000000, 
-9.000000, 
-9.000000, 
-9.000000" 
fill="rgb(255,170,153)" 
fill-opacity="1.000000" 
stroke="none" 
/>
</g>
<g transform="
translate(-45.000000,45.000000), 
scale(1.000000,1.000000)
" 
>
<polygon points="
-9.000000, 
9.000000, 
9.000000, 
9.000000, 
9.000000, 
-9.000000, 
-9.000000, 
-9.000000" 
fill="rgb(255,170,153)" 
fill-opacity="1.000000" 
stroke="none" 
/>
</g>
<g transform="
translate(-27.000000,45.000000), 
scale(1.000000,1.000000)
" 
>
<polygon points="
-9.000000, 
9.000000, 
9.000000, 
9.000000, 
9.000000, 
-9.000000, 
-9.000000, 
-9.000000" 
fill="rgb(255,170,153)" 
fill-opacity="1.000000" 
stroke="none" 
/>
</g>
<g transform="
translate(-9.000000,45.000000), 
scale(1.000000,1.000000)
" 
>
<polygon points="
-9.000000, 
9.000000, 
9.000000, 
9.000000, 
9.000000, 
-9.000000, 
-9.000000, 
-9.000000" 
fill="rgb(255,170,153)" 
fill-opacity="1.000000" 
stroke="none" 
/>
</g>
<g transform="
translate(-45.000000,63.000000), 
scale(1.000000,1.000000)
" 
>
<polygon points="
-9.000000, 
9.000000, 
9.000000, 
9.000000, 
9.000000, 
-9.000000, 
-9.000000, 
-9.000000" 
fill="rgb(255,170,153)" 
fill-opacity="1.000000" 
stroke="none" 
/>
</g>
<g transform="
translate(-27.000000,63.000000), 
scale(1.000000,1.000000)
" 
>
<polygon points="
-9.000000, 
9.000000, 
9.000000, 
9.000000, 
9.000000, 
-9.000000, 
-9.000000, 
-9.000000" 
fill="rgb(255,170,153)" 
fill-opacity="1.000000" 
stroke="none" 
/>
</g>
<g transform="
translate(-9.000000,63.000000), 
scale(1.000000,1.000000)
" 
>
<polygon points="
-9.000000, 
9.000000, 
9.000000, 
9.000000, 
9.000000, 
-9.000000, 
-9.000000, 
-9.000000" 
fill="rgb(255,170,153)" 
fill-opacity="1.000000" 
stroke="none" 
/>
</g>
<g transform="
translate(-99.000000,81.000000), 
scale(1.000000,1.000000)
" 
>
<polygon points="
-9.000000, 
9.000000, 
9.000000, 
9.000000, 
9.000000, 
-9.000000, 
-9.000000, 
-9.000000" 
fill="rgb(255,170,153)" 
fill-opacity="1.000000" 
stroke="none" 
/>
</g>
<g transform="
translate(-81.000000,81.000000), 
scale(1.000000,1.000000)
" 
>
<polygon points="
-9.000000, 
9.000000, 
9.000000, 
9.000000, 
9.000000, 
-9.000000, 
-9.000000, 
-9.000000" 
fill="rgb(17,17,17)" 
fill-opacity="1.000000" 
stroke="none" 
/>
</g>
<g transform="
translate(-63.000000,81.000000), 
scale(1.000000,1.000000)
" 
>
<polygon points="
-9.000000, 
9.000000, 
9.000000, 
9.000000, 
9.000000, 
-9.000000, 
-9.000000, 
-9.000000" 
fill="rgb(255,170,153)" 
fill-opacity="1.000000" 
stroke="none" 
/>
</g>
<g transform="
translate(-27.000000,81.000000), 
scale(1.000000,1.000000)
" 
>
<polygon points="
-9.000000, 
9.000000, 
9.000000, 
9.000000, 
9.000000, 
-9.000000, 
-9.000000, 
-9.000000" 
fill="rgb(255,170,153)" 
fill-opacity="1.000000" 
stroke="none" 
/>
</g>
<g transform="
translate(-99.000000,99.000000), 
scale(1.000000,1.000000)
" 
>
<polygon points="
-9.000000, 
9.000000, 
9.000000, 
9.000000, 
9.000000, 
-9.000000, 
-9.000000, 
-9.000000" 
fill="rgb(255,170,153)" 
fill-opacity="1.000000" 
stroke="none" 
/>
</g>
<g transform="
translate(-81.000000,99.000000), 
scale(1.000000,1.000000)
" 
>
<polygon points="
-9.000000, 
9.000000, 
9.000000, 
9.000000, 
9.000000, 
-9.000000, 
-9.000000, 
-9.000000" 
fill="rgb(255,170,153)" 
fill-opacity="1.000000" 
stroke="none" 
/>
</g>
<g transform="
translate(-63.000000,99.000000), 
scale(1.000000,1.000000)
" 
>
<polygon points="
-9.000000, 
9.000000, 
9.000000, 
9.000000, 
9.000000, 
-9.000000, 
-9.000000, 
-9.000000" 
fill="rgb(255,170,153)" 
fill-opacity="1.000000" 
stroke="none" 
/>
</g>
<g transform="
translate(-27.000000,99.000000), 
scale(1.000000,1.000000)
" 
>
<polygon points="
-9.000000, 
9.000000, 
9.000000, 
9.000000, 
9.000000, 
-9.000000, 
-9.000000, 
-9.000000" 
fill="rgb(255,170,153)" 
fill-opacity="1.000000" 
stroke="none" 
/>
</g>
<g transform="
translate(-9.000000,99.000000), 
scale(1.000000,1.000000)
" 
>
<polygon points="
-9.000000, 
9.000000, 
9.000000, 
9.000000, 
9.000000, 
-9.000000, 
-9.000000, 
-9.000000" 
fill="rgb(255,170,153)" 
fill-opacity="1.000000" 
stroke="none" 
/>
</g>
<g transform="
translate(-99.000000,117.000000), 
scale(1.000000,1.000000)
" 
>
<polygon points="
-9.000000, 
9.000000, 
9.000000, 
9.000000, 
9.000000, 
-9.000000, 
-9.000000, 
-9.000000" 
fill="rgb(17,17,17)" 
fill-opacity="1.000000" 
stroke="none" 
/>
</g>
<g transform="
translate(-81.000000,117.000000), 
scale(1.000000,1.000000)
" 
>
<polygon points="
-9.000000, 
9.000000, 
9.000000, 
9.000000, 
9.000000, 
-9.000000, 
-9.000000, 
-9.000000" 
fill="rgb(255,170,153)" 
fill-opacity="1.000000" 
stroke="none" 
/>
</g>
<g transform="
translate(-63.000000,117.000000), 
scale(1.000000,1.000000)
" 
>
<polygon points="
-9.000000, 
9.000000, 
9.000000, 
9.000000, 
9.000000, 
-9.000000, 
-9.000000, 
-9.000000" 
fill="rgb(17,17,17)" 
fill-opacity="1.000000" 
stroke="none" 
/>
</g>
<g transform="
translate(-9.000000,117.000000), 
scale(1.000000,1.000000)
" 
>
<polygon points="
-9.000000, 
9.000000, 
9.000000, 
9.000000, 
9.000000, 
-9.000000, 
-9.000000, 
-9.000000" 
fill="rgb(255,170,153)" 
fill-opacity="1.000000" 
stroke="none" 
/>
</g>
<g transform="
translate(-117.000000,135.000000), 
scale(1.000000,1.000000)
" 
>
<polygon points="
-9.000000, 
9.000000, 
9.000000, 
9.000000, 
9.000000, 
-9.000000, 
-9.000000, 
-9.000000" 
fill="rgb(119,68,0)" 
fill-opacity="1.000000" 
stroke="none" 
/>
</g>
<g transform="
translate(-99.000000,135.000000), 
scale(1.000000,1.000000)
" 
>
<polygon points="
-9.000000, 
9.000000, 
9.000000, 
9.000000, 
9.000000, 
-9.000000, 
-9.000000, 
-9.000000" 
fill="rgb(255,170,153)" 
fill-opacity="1.000000" 
stroke="none" 
/>
</g>
<g transform="
translate(-81.000000,135.000000), 
scale(1.000000,1.000000)
" 
>
<polygon points="
-9.000000, 
9.000000, 
9.000000, 
9.000000, 
9.000000, 
-9.000000, 
-9.000000, 
-9.000000" 
fill="rgb(255,170,153)" 
fill-opacity="1.000000" 
stroke="none" 
/>
</g>
<g transform="
translate(-63.000000,135.000000), 
scale(1.000000,1.000000)
" 
>
<polygon points="
-9.000000, 
9.000000, 
9.000000, 
9.000000, 
9.000000, 
-9.000000, 
-9.000000, 
-9.000000" 
fill="rgb(255,170,153)" 
fill-opacity="1.000000" 
stroke="none" 
/>
</g>
<g transform="
translate(-45.000000,135.000000), 
scale(1.000000,1.000000)
" 
>
<polygon points="
-9.000000, 
9.000000, 
9.000000, 
9.000000, 
9.000000, 
-9.000000, 
-9.000000, 
-9.000000" 
fill="rgb(119,68,0)" 
fill-opacity="1.000000" 
stroke="none" 
/>
</g>
<g transform="
translate(-153.000000,153.000000), 
scale(1.000000,1.000000)
" 
>
<polygon points="
-9.000000, 
9.000000, 
9.000000, 
9.000000, 
9.000000, 
-9.000000, 
-9.000000, 
-9.000000" 
fill="rgb(0,153,238)" 
fill-opacity="1.000000" 
stroke="none" 
/>
</g>
<g transform="
translate(-153.000000,171.000000), 
scale(1.000000,1.000000)
" 
>
<polygon points="
-9.000000, 
9.000000, 
9.000000, 
9.000000, 
9.000000, 
-9.000000, 
-9.000000, 
-9.000000" 
fill="rgb(0,153,238)" 
fill-opacity="1.000000" 
stroke="none" 
/>
</g>
<g transform="
translate(-171.000000,243.000000), 
scale(1.000000,1.000000)
" 
>
<polygon points="
-9.000000, 
9.000000, 
9.000000, 
9.000000, 
9.000000, 
-9.000000, 
-9.000000, 
-9.000000" 
fill="rgb(0,153,238)" 
fill-opacity="1.000000" 
stroke="none" 
/>
</g>
<g transform="
translate(-171.000000,261.000000), 
scale(1.000000,1.000000)
" 
>
<polygon points="
-9.000000, 
9.000000, 
9.000000, 
9.000000, 
9.000000, 
-9.000000, 
-9.000000, 
-9.000000" 
fill="rgb(0,153,238)" 
fill-opacity="1.000000" 
stroke="none" 
/>
</g>
<g transform="
translate(-99.000000,153.000000), 
scale(1.000000,1.000000)
" 
>
<polygon points="
-9.000000, 
9.000000, 
9.000000, 
9.000000, 
9.000000, 
-9.000000, 
-9.000000, 
-9.000000" 
fill="rgb(119,68,0)" 
fill-opacity="1.000000" 
stroke="none" 
/>
</g>
<g transform="
translate(-81.000000,153.000000), 
scale(1.000000,1.000000)
" 
>
<polygon points="
-9.000000, 
9.000000, 
9.000000, 
9.000000, 
9.000000, 
-9.000000, 
-9.000000, 
-9.000000" 
fill="rgb(119,68,0)" 
fill-opacity="1.000000" 
stroke="none" 
/>
</g>
<g transform="
translate(-63.000000,153.000000), 
scale(1.000000,1.000000)
" 
>
<polygon points="
-9.000000, 
9.000000, 
9.000000, 
9.000000, 
9.000000, 
-9.000000, 
-9.000000, 
-9.000000" 
fill="rgb(119,68,0)" 
fill-opacity="1.000000" 
stroke="none" 
/>
</g>
<g transform="
translate(-81.000000,189.000000), 
scale(1.000000,1.000000)
" 
>
<polygon points="
-9.000000, 
9.000000, 
9.000000, 
9.000000, 
9.000000, 
-9.000000, 
-9.000000, 
-9.000000" 
fill="rgb(0,153,238)" 
fill-opacity="1.000000" 
stroke="none" 
/>
</g>
<g transform="
translate(-81.000000,207.000000), 
scale(1.000000,1.000000)
" 
>
<polygon points="
-9.000000, 
9.000000, 
9.000000, 
9.000000, 
9.000000, 
-9.000000, 
-9.000000, 
-9.000000" 
fill="rgb(0,153,238)" 
fill-opacity="1.000000" 
stroke="none" 
/>
</g>
<g transform="
translate(-27.000000,207.000000), 
scale(1.000000,1.000000)
" 
>
<polygon points="
-9.000000, 
9.000000, 
9.000000, 
9.000000, 
9.000000, 
-9.000000, 
-9.000000, 
-9.000000" 
fill="rgb(0,153,238)" 
fill-opacity="1.000000" 
stroke="none" 
/>
</g>
<g transform="
translate(-117.000000,225.000000), 
scale(1.000000,1.000000)
" 
>
<polygon points="
-9.000000, 
9.000000, 
9.000000, 
9.000000, 
9.000000, 
-9.000000, 
-9.000000, 
-9.000000" 
fill="rgb(0,153,238)" 
fill-opacity="1.000000" 
stroke="none" 
/>
</g>
<g transform="
translate(-117.000000,243.000000), 
scale(1.000000,1.000000)
" 
>
<polygon points="
-9.000000, 
9.000000, 
9.000000, 
9.000000, 
9.000000, 
-9.000000, 
-9.000000, 
-9.000000" 
fill="rgb(0,153,238)" 
fill-opacity="1.000000" 
stroke="none" 
/>
</g>
<g transform="
translate(-45.000000,243.000000), 
scale(1.000000,1.000000)
" 
>
<polygon points="
-9.000000, 
9.000000, 
9.000000, 
9.000000, 
9.000000, 
-9.000000, 
-9.000000, 
-9.000000" 
fill="rgb(0,153,238)" 
fill-opacity="1.000000" 
stroke="none" 
/>
</g>
<g transform="
translate(-45.000000,261.000000), 
scale(1.000000,1.000000)
" 
>
<polygon points="
-9.000000, 
9.000000, 
9.000000, 
9.000000, 
9.000000, 
-9.000000, 
-9.000000, 
-9.000000" 
fill="rgb(0,153,238)" 
fill-opacity="1.000000" 
stroke="none" 
/>
</g>
<g transform="
translate(-99.000000,279.000000), 
scale(1.000000,1.000000)
" 
>
<polygon points="
-9.000000, 
9.000000, 
9.000000, 
9.000000, 
9.000000, 
-9.000000, 
-9.000000, 
-9.000000" 
fill="rgb(0,153,238)" 
fill-opacity="1.000000" 
stroke="none" 
/>
</g>
<g transform="
translate(-63.000000,279.000000), 
scale(1.000000,1.000000)
" 
>
<polygon points="
-9.000000, 
9.000000, 
9.000000, 
9.000000, 
9.000000, 
-9.000000, 
-9.000000, 
-9.000000" 
fill="rgb(0,153,238)" 
fill-opacity="1.000000" 
stroke="none" 
/>
</g>
<g transform="
translate(171.000000,-153.000000), 
scale(1.000000,1.000000)
" 
>
<polygon points="
-9.000000, 
9.000000, 
9.000000, 
9.000000, 
9.000000, 
-9.000000, 
-9.000000, 
-9.000000" 
fill="rgb(153,153,153)" 
fill-opacity="1.000000" 
stroke="none" 
/>
</g>
<g transform="
translate(117.000000,-99.000000), 
scale(1.000000,1.000000)
" 
>
<polygon points="
-9.000000, 
9.000000, 
9.000000, 
9.000000, 
9.000000, 
-9.000000, 
-9.000000, 
-9.000000" 
fill="rgb(17,17,17)" 
fill-opacity="1.000000" 
stroke="none" 
/>
</g>
<g transform="
translate(135.000000,-99.000000), 
scale(1.000000,1.000000)
" 
>
<polygon points="
-9.000000, 
9.000000, 
9.000000, 
9.000000, 
9.000000, 
-9.000000, 
-9.000000, 
-9.000000" 
fill="rgb(17,17,17)" 
fill-opacity="1.000000" 
stroke="none" 
/>
</g>
<g transform="
translate(99.000000,-81.000000), 
scale(1.000000,1.000000)
" 
>
<polygon points="
-9.000000, 
9.000000, 
9.000000, 
9.000000, 
9.000000, 
-9.000000, 
-9.000000, 
-9.000000" 
fill="rgb(255,170,153)" 
fill-opacity="1.000000" 
stroke="none" 
/>
</g>
<g transform="
translate(81.000000,-63.000000), 
scale(1.000000,1.000000)
" 
>
<polygon points="
-9.000000, 
9.000000, 
9.000000, 
9.000000, 
9.000000, 
-9.000000, 
-9.000000, 
-9.000000" 
fill="rgb(255,170,153)" 
fill-opacity="1.000000" 
stroke="none" 
/>
</g>
<g transform="
translate(135.000000,-63.000000), 
scale(1.000000,1.000000)
" 
>
<polygon points="
-9.000000, 
9.000000, 
9.000000, 
9.000000, 
9.000000, 
-9.000000, 
-9.000000, 
-9.000000" 
fill="rgb(153,153,153)" 
fill-opacity="1.000000" 
stroke="none" 
/>
</g>
<g transform="
translate(45.000000,-45.000000), 
scale(1.000000,1.000000)
" 
>
<polygon points="
-9.000000, 
9.000000, 
9.000000, 
9.000000, 
9.000000, 
-9.000000, 
-9.000000, 
-9.000000" 
fill="rgb(17,17,17)" 
fill-opacity="1.000000" 
stroke="none" 
/>
</g>
<g transform="
translate(63.000000,-45.000000), 
scale(1.000000,1.000000)
" 
>
<polygon points="
-9.000000, 
9.000000, 
9.000000, 
9.000000, 
9.000000, 
-9.000000, 
-9.000000, 
-9.000000" 
fill="rgb(17,17,17)" 
fill-opacity="1.000000" 
stroke="none" 
/>
</g>
<g transform="
translate(99.000000,-45.000000), 
scale(1.000000,1.000000)
" 
>
<polygon points="
-9.000000, 
9.000000, 
9.000000, 
9.000000, 
9.000000, 
-9.000000, 
-9.000000, 
-9.000000" 
fill="rgb(17,17,17)" 
fill-opacity="1.000000" 
stroke="none" 
/>
</g>
<g transform="
translate(117.000000,-45.000000), 
scale(1.000000,1.000000)
" 
>
<polygon points="
-9.000000, 
9.000000, 
9.000000, 
9.000000, 
9.000000, 
-9.000000, 
-9.000000, 
-9.000000" 
fill="rgb(17,17,17)" 
fill-opacity="1.000000" 
stroke="none" 
/>
</g>
<g transform="
translate(135.000000,-45.000000), 
scale(1.000000,1.000000)
" 
>
<polygon points="
-9.000000, 
9.000000, 
9.000000, 
9.000000, 
9.000000, 
-9.000000, 
-9.000000, 
-9.000000" 
fill="rgb(153,153,153)" 
fill-opacity="1.000000" 
stroke="none" 
/>
</g>
<g transform="
translate(27.000000,-27.000000), 
scale(1.000000,1.000000)
" 
>
<polygon points="
-9.000000, 
9.000000, 
9.000000, 
9.000000, 
9.000000, 
-9.000000, 
-9.000000, 
-9.000000" 
fill="rgb(17,17,17)" 
fill-opacity="1.000000" 
stroke="none" 
/>
</g>
<g transform="
translate(45.000000,-27.000000), 
scale(1.000000,1.000000)
" 
>
<polygon points="
-9.000000, 
9.000000, 
9.000000, 
9.000000, 
9.000000, 
-9.000000, 
-9.000000, 
-9.000000" 
fill="rgb(17,17,17)" 
fill-opacity="1.000000" 
stroke="none" 
/>
</g>
<g transform="
translate(63.000000,-27.000000), 
scale(1.000000,1.000000)
" 
>
<polygon points="
-9.000000, 
9.000000, 
9.000000, 
9.000000, 
9.000000, 
-9.000000, 
-9.000000, 
-9.000000" 
fill="rgb(17,17,17)" 
fill-opacity="1.000000" 
stroke="none" 
/>
</g>
<g transform="
translate(99.000000,-27.000000), 
scale(1.000000,1.000000)
" 
>
<polygon points="
-9.000000, 
9.000000, 
9.000000, 
9.000000, 
9.000000, 
-9.000000, 
-9.000000, 
-9.000000" 
fill="rgb(255,170,153)" 
fill-opacity="1.000000" 
stroke="none" 
/>
</g>
<g transform="
translate(135.000000,-27.000000), 
scale(1.000000,1.000000)
" 
>
<polygon points="
-9.000000, 
9.000000, 
9.000000, 
9.000000, 
9.000000, 
-9.000000, 
-9.000000, 
-9.000000" 
fill="rgb(153,153,153)" 
fill-opacity="1.000000" 
stroke="none" 
/>
</g>
<g transform="
translate(9.000000,-9.000000), 
scale(1.000000,1.000000)
" 
>
<polygon points="
-9.000000, 
9.000000, 
9.000000, 
9.000000, 
9.000000, 
-9.000000, 
-9.000000, 
-9.000000" 
fill="rgb(17,17,17)" 
fill-opacity="1.000000" 
stroke="none" 
/>
</g>
<g transform="
translate(27.000000,-9.000000), 
scale(1.000000,1.000000)
" 
>
<polygon points="
-9.000000, 
9.000000, 
9.000000, 
9.000000, 
9.000000, 
-9.000000, 
-9.000000, 
-9.000000" 
fill="rgb(17,17,17)" 
fill-opacity="1.000000" 
stroke="none" 
/>
</g>
<g transform="
translate(45.000000,-9.000000), 
scale(1.000000,1.000000)
" 
>
<polygon points="
-9.000000, 
9.000000, 
9.000000, 
9.000000, 
9.000000, 
-9.000000, 
-9.000000, 
-9.000000" 
fill="rgb(17,17,17)" 
fill-opacity="1.000000" 
stroke="none" 
/>
</g>
<g transform="
translate(99.000000,-9.000000), 
scale(1.000000,1.000000)
" 
>
<polygon points="
-9.000000, 
9.000000, 
9.000000, 
9.000000, 
9.000000, 
-9.000000, 
-9.000000, 
-9.000000" 
fill="rgb(255,170,153)" 
fill-opacity="1.000000" 
stroke="none" 
/>
</g>
<g transform="
translate(135.000000,-9.000000), 
scale(1.000000,1.000000)
" 
>
<polygon points="
-9.000000, 
9.000000, 
9.000000, 
9.000000, 
9.000000, 
-9.000000, 
-9.000000, 
-9.000000" 
fill="rgb(153,153,153)" 
fill-opacity="1.000000" 
stroke="none" 
/>
</g>
<g transform="
translate(153.000000,-135.000000), 
scale(1.000000,1.000000)
" 
>
<polygon points="
-9.000000, 
9.000000, 
9.000000, 
9.000000, 
9.000000, 
-9.000000, 
-9.000000, 
-9.000000" 
fill="rgb(153,153,153)" 
fill-opacity="1.000000" 
stroke="none" 
/>
</g>
<g transform="
translate(171.000000,-135.000000), 
scale(1.000000,1.000000)
" 
>
<polygon points="
-9.000000, 
9.000000, 
9.000000, 
9.000000, 
9.000000, 
-9.000000, 
-9.000000, 
-9.000000" 
fill="rgb(153,153,153)" 
fill-opacity="1.000000" 
stroke="none" 
/>
</g>
<g transform="
translate(153.000000,-117.000000), 
scale(1.000000,1.000000)
" 
>
<polygon points="
-9.000000, 
9.000000, 
9.000000, 
9.000000, 
9.000000, 
-9.000000, 
-9.000000, 
-9.000000" 
fill="rgb(153,153,153)" 
fill-opacity="1.000000" 
stroke="none" 
/>
</g>
<g transform="
translate(171.000000,-117.000000), 
scale(1.000000,1.000000)
" 
>
<polygon points="
-9.000000, 
9.000000, 
9.000000, 
9.000000, 
9.000000, 
-9.000000, 
-9.000000, 
-9.000000" 
fill="rgb(187,187,187)" 
fill-opacity="1.000000" 
stroke="none" 
/>
</g>
<g transform="
translate(153.000000,-99.000000), 
scale(1.000000,1.000000)
" 
>
<polygon points="
-9.000000, 
9.000000, 
9.000000, 
9.000000, 
9.000000, 
-9.000000, 
-9.000000, 
-9.000000" 
fill="rgb(153,153,153)" 
fill-opacity="1.000000" 
stroke="none" 
/>
</g>
<g transform="
translate(171.000000,-99.000000), 
scale(1.000000,1.000000)
" 
>
<polygon points="
-9.000000, 
9.000000, 
9.000000, 
9.000000, 
9.000000, 
-9.000000, 
-9.000000, 
-9.000000" 
fill="rgb(187,187,187)" 
fill-opacity="1.000000" 
stroke="none" 
/>
</g>
<g transform="
translate(153.000000,-81.000000), 
scale(1.000000,1.000000)
" 
>
<polygon points="
-9.000000, 
9.000000, 
9.000000, 
9.000000, 
9.000000, 
-9.000000, 
-9.000000, 
-9.000000" 
fill="rgb(153,153,153)" 
fill-opacity="1.000000" 
stroke="none" 
/>
</g>
<g transform="
translate(171.000000,-81.000000), 
scale(1.000000,1.000000)
" 
>
<polygon points="
-9.000000, 
9.000000, 
9.000000, 
9.000000, 
9.000000, 
-9.000000, 
-9.000000, 
-9.000000" 
fill="rgb(187,187,187)" 
fill-opacity="1.000000" 
stroke="none" 
/>
</g>
<g transform="
translate(153.000000,-63.000000), 
scale(1.000000,1.000000)
" 
>
<polygon points="
-9.000000, 
9.000000, 
9.000000, 
9.000000, 
9.000000, 
-9.000000, 
-9.000000, 
-9.000000" 
fill="rgb(153,153,153)" 
fill-opacity="1.000000" 
stroke="none" 
/>
</g>
<g transform="
translate(171.000000,-63.000000), 
scale(1.000000,1.000000)
" 
>
<polygon points="
-9.000000, 
9.000000, 
9.000000, 
9.000000, 
9.000000, 
-9.000000, 
-9.000000, 
-9.000000" 
fill="rgb(187,187,187)" 
fill-opacity="1.000000" 
stroke="none" 
/>
</g>
<g transform="
translate(153.000000,-45.000000), 
scale(1.000000,1.000000)
" 
>
<polygon points="
-9.000000, 
9.000000, 
9.000000, 
9.000000, 
9.000000, 
-9.000000, 
-9.000000, 
-9.000000" 
fill="rgb(187,187,187)" 
fill-opacity="1.000000" 
stroke="none" 
/>
</g>
<g transform="
translate(171.000000,-45.000000), 
scale(1.000000,1.000000)
" 
>
<polygon points="
-9.000000, 
9.000000, 
9.000000, 
9.000000, 
9.000000, 
-9.000000, 
-9.000000, 
-9.000000" 
fill="rgb(187,187,187)" 
fill-opacity="1.000000" 
stroke="none" 
/>
</g>
<g transform="
translate(153.000000,-27.000000), 
scale(1.000000,1.000000)
" 
>
<polygon points="
-9.000000, 
9.000000, 
9.000000, 
9.000000, 
9.000000, 
-9.000000, 
-9.000000, 
-9.000000" 
fill="rgb(187,187,187)" 
fill-opacity="1.000000" 
stroke="none" 
/>
</g>
<g transform="
translate(171.000000,-27.000000), 
scale(1.000000,1.000000)
" 
>
<polygon points="
-9.000000, 
9.000000, 
9.000000, 
9.000000, 
9.000000, 
-9.000000, 
-9.000000, 
-9.000000" 
fill="rgb(187,187,187)" 
fill-opacity="1.000000" 
stroke="none" 
/>
</g>
<g transform="
translate(153.000000,-9.000000), 
scale(1.000000,1.000000)
" 
>
<polygon points="
-9.000000, 
9.000000, 
9.000000, 
9.000000, 
9.000000, 
-9.000000, 
-9.000000, 
-9.000000" 
fill="rgb(187,187,187)" 
fill-opacity="1.000000" 
stroke="none" 
/>
</g>
<g transform="
translate(171.000000,-9.000000), 
scale(1.000000,1.000000)
" 
>
<polygon points="
-9.000000, 
9.000000, 
9.000000, 
9.000000, 
9.000000, 
-9.000000, 
-9.000000, 
-9.000000" 
fill="rgb(187,187,187)" 
fill-opacity="1.000000" 
stroke="none" 
/>
</g>
<g transform="
translate(9.000000,9.000000), 
scale(1.000000,1.000000)
" 
>
<polygon points="
-9.000000, 
9.000000, 
9.000000, 
9.000000, 
9.000000, 
-9.000000, 
-9.000000, 
-9.000000" 
fill="rgb(255,170,153)" 
fill-opacity="1.000000" 
stroke="none" 
/>
</g>
<g transform="
translate(27.000000,9.000000), 
scale(1.000000,1.000000)
" 
>
<polygon points="
-9.000000, 
9.000000, 
9.000000, 
9.000000, 
9.000000, 
-9.000000, 
-9.000000, 
-9.000000" 
fill="rgb(17,17,17)" 
fill-opacity="1.000000" 
stroke="none" 
/>
</g>
<g transform="
translate(45.000000,9.000000), 
scale(1.000000,1.000000)
" 
>
<polygon points="
-9.000000, 
9.000000, 
9.000000, 
9.000000, 
9.000000, 
-9.000000, 
-9.000000, 
-9.000000" 
fill="rgb(17,17,17)" 
fill-opacity="1.000000" 
stroke="none" 
/>
</g>
<g transform="
translate(63.000000,9.000000), 
scale(1.000000,1.000000)
" 
>
<polygon points="
-9.000000, 
9.000000, 
9.000000, 
9.000000, 
9.000000, 
-9.000000, 
-9.000000, 
-9.000000" 
fill="rgb(17,17,17)" 
fill-opacity="1.000000" 
stroke="none" 
/>
</g>
<g transform="
translate(81.000000,9.000000), 
scale(1.000000,1.000000)
" 
>
<polygon points="
-9.000000, 
9.000000, 
9.000000, 
9.000000, 
9.000000, 
-9.000000, 
-9.000000, 
-9.000000" 
fill="rgb(17,17,17)" 
fill-opacity="1.000000" 
stroke="none" 
/>
</g>
<g transform="
translate(99.000000,9.000000), 
scale(1.000000,1.000000)
" 
>
<polygon points="
-9.000000, 
9.000000, 
9.000000, 
9.000000, 
9.000000, 
-9.000000, 
-9.000000, 
-9.000000" 
fill="rgb(255,170,153)" 
fill-opacity="1.000000" 
stroke="none" 
/>
</g>
<g transform="
translate(135.000000,9.000000), 
scale(1.000000,1.000000)
" 
>
<polygon points="
-9.000000, 
9.000000, 
9.000000, 
9.000000, 
9.000000, 
-9.000000, 
-9.000000, 
-9.000000" 
fill="rgb(153,153,153)" 
fill-opacity="1.000000" 
stroke="none" 
/>
</g>
<g transform="
translate(9.000000,27.000000), 
scale(1.000000,1.000000)
" 
>
<polygon points="
-9.000000, 
9.000000, 
9.000000, 
9.000000, 
9.000000, 
-9.000000, 
-9.000000, 
-9.000000" 
fill="rgb(255,170,153)" 
fill-opacity="1.000000" 
stroke="none" 
/>
</g>
<g transform="
translate(27.000000,27.000000), 
scale(1.000000,1.000000)
" 
>
<polygon points="
-9.000000, 
9.000000, 
9.000000, 
9.000000, 
9.000000, 
-9.000000, 
-9.000000, 
-9.000000" 
fill="rgb(255,170,153)" 
fill-opacity="1.000000" 
stroke="none" 
/>
</g>
<g transform="
translate(45.000000,27.000000), 
scale(1.000000,1.000000)
" 
>
<polygon points="
-9.000000, 
9.000000, 
9.000000, 
9.000000, 
9.000000, 
-9.000000, 
-9.000000, 
-9.000000" 
fill="rgb(17,17,17)" 
fill-opacity="1.000000" 
stroke="none" 
/>
</g>
<g transform="
translate(63.000000,27.000000), 
scale(1.000000,1.000000)
" 
>
<polygon points="
-9.000000, 
9.000000, 
9.000000, 
9.000000, 
9.000000, 
-9.000000, 
-9.000000, 
-9.000000" 
fill="rgb(17,17,17)" 
fill-opacity="1.000000" 
stroke="none" 
/>
</g>
<g transform="
translate(81.000000,27.000000), 
scale(1.000000,1.000000)
" 
>
<polygon points="
-9.000000, 
9.000000, 
9.000000, 
9.000000, 
9.000000, 
-9.000000, 
-9.000000, 
-9.000000" 
fill="rgb(17,17,17)" 
fill-opacity="1.000000" 
stroke="none" 
/>
</g>
<g transform="
translate(135.000000,27.000000), 
scale(1.000000,1.000000)
" 
>
<polygon points="
-9.000000, 
9.000000, 
9.000000, 
9.000000, 
9.000000, 
-9.000000, 
-9.000000, 
-9.000000" 
fill="rgb(153,153,153)" 
fill-opacity="1.000000" 
stroke="none" 
/>
</g>
<g transform="
translate(9.000000,45.000000), 
scale(1.000000,1.000000)
" 
>
<polygon points="
-9.000000, 
9.000000, 
9.000000, 
9.000000, 
9.000000, 
-9.000000, 
-9.000000, 
-9.000000" 
fill="rgb(255,170,153)" 
fill-opacity="1.000000" 
stroke="none" 
/>
</g>
<g transform="
translate(117.000000,45.000000), 
scale(1.000000,1.000000)
" 
>
<polygon points="
-9.000000, 
9.000000, 
9.000000, 
9.000000, 
9.000000, 
-9.000000, 
-9.000000, 
-9.000000" 
fill="rgb(153,153,153)" 
fill-opacity="1.000000" 
stroke="none" 
/>
</g>
<g transform="
translate(135.000000,45.000000), 
scale(1.000000,1.000000)
" 
>
<polygon points="
-9.000000, 
9.000000, 
9.000000, 
9.000000, 
9.000000, 
-9.000000, 
-9.000000, 
-9.000000" 
fill="rgb(153,153,153)" 
fill-opacity="1.000000" 
stroke="none" 
/>
</g>
<g transform="
translate(117.000000,63.000000), 
scale(1.000000,1.000000)
" 
>
<polygon points="
-9.000000, 
9.000000, 
9.000000, 
9.000000, 
9.000000, 
-9.000000, 
-9.000000, 
-9.000000" 
fill="rgb(153,153,153)" 
fill-opacity="1.000000" 
stroke="none" 
/>
</g>
<g transform="
translate(135.000000,63.000000), 
scale(1.000000,1.000000)
" 
>
<polygon points="
-9.000000, 
9.000000, 
9.000000, 
9.000000, 
9.000000, 
-9.000000, 
-9.000000, 
-9.000000" 
fill="rgb(187,187,187)" 
fill-opacity="1.000000" 
stroke="none" 
/>
</g>
<g transform="
translate(99.000000,81.000000), 
scale(1.000000,1.000000)
" 
>
<polygon points="
-9.000000, 
9.000000, 
9.000000, 
9.000000, 
9.000000, 
-9.000000, 
-9.000000, 
-9.000000" 
fill="rgb(153,153,153)" 
fill-opacity="1.000000" 
stroke="none" 
/>
</g>
<g transform="
translate(117.000000,81.000000), 
scale(1.000000,1.000000)
" 
>
<polygon points="
-9.000000, 
9.000000, 
9.000000, 
9.000000, 
9.000000, 
-9.000000, 
-9.000000, 
-9.000000" 
fill="rgb(153,153,153)" 
fill-opacity="1.000000" 
stroke="none" 
/>
</g>
<g transform="
translate(135.000000,81.000000), 
scale(1.000000,1.000000)
" 
>
<polygon points="
-9.000000, 
9.000000, 
9.000000, 
9.000000, 
9.000000, 
-9.000000, 
-9.000000, 
-9.000000" 
fill="rgb(187,187,187)" 
fill-opacity="1.000000" 
stroke="none" 
/>
</g>
<g transform="
translate(99.000000,99.000000), 
scale(1.000000,1.000000)
" 
>
<polygon points="
-9.000000, 
9.000000, 
9.000000, 
9.000000, 
9.000000, 
-9.000000, 
-9.000000, 
-9.000000" 
fill="rgb(153,153,153)" 
fill-opacity="1.000000" 
stroke="none" 
/>
</g>
<g transform="
translate(117.000000,99.000000), 
scale(1.000000,1.000000)
" 
>
<polygon points="
-9.000000, 
9.000000, 
9.000000, 
9.000000, 
9.000000, 
-9.000000, 
-9.000000, 
-9.000000" 
fill="rgb(187,187,187)" 
fill-opacity="1.000000" 
stroke="none" 
/>
</g>
<g transform="
translate(135.000000,99.000000), 
scale(1.000000,1.000000)
" 
>
<polygon points="
-9.000000, 
9.000000, 
9.000000, 
9.000000, 
9.000000, 
-9.000000, 
-9.000000, 
-9.000000" 
fill="rgb(187,187,187)" 
fill-opacity="1.000000" 
stroke="none" 
/>
</g>
<g transform="
translate(9.000000,117.000000), 
scale(1.000000,1.000000)
" 
>
<polygon points="
-9.000000, 
9.000000, 
9.000000, 
9.000000, 
9.000000, 
-9.000000, 
-9.000000, 
-9.000000" 
fill="rgb(255,170,153)" 
fill-opacity="1.000000" 
stroke="none" 
/>
</g>
<g transform="
translate(99.000000,117.000000), 
scale(1.000000,1.000000)
" 
>
<polygon points="
-9.000000, 
9.000000, 
9.000000, 
9.000000, 
9.000000, 
-9.000000, 
-9.000000, 
-9.000000" 
fill="rgb(153,153,153)" 
fill-opacity="1.000000" 
stroke="none" 
/>
</g>
<g transform="
translate(117.000000,117.000000), 
scale(1.000000,1.000000)
" 
>
<polygon points="
-9.000000, 
9.000000, 
9.000000, 
9.000000, 
9.000000, 
-9.000000, 
-9.000000, 
-9.000000" 
fill="rgb(187,187,187)" 
fill-opacity="1.000000" 
stroke="none" 
/>
</g>
<g transform="
translate(135.000000,117.000000), 
scale(1.000000,1.000000)
" 
>
<polygon points="
-9.000000, 
9.000000, 
9.000000, 
9.000000, 
9.000000, 
-9.000000, 
-9.000000, 
-9.000000" 
fill="rgb(187,187,187)" 
fill-opacity="1.000000" 
stroke="none" 
/>
</g>
<g transform="
translate(9.000000,135.000000), 
scale(1.000000,1.000000)
" 
>
<polygon points="
-9.000000, 
9.000000, 
9.000000, 
9.000000, 
9.000000, 
-9.000000, 
-9.000000, 
-9.000000" 
fill="rgb(255,170,153)" 
fill-opacity="1.000000" 
stroke="none" 
/>
</g>
<g transform="
translate(81.000000,135.000000), 
scale(1.000000,1.000000)
" 
>
<polygon points="
-9.000000, 
9.000000, 
9.000000, 
9.000000, 
9.000000, 
-9.000000, 
-9.000000, 
-9.000000" 
fill="rgb(153,153,153)" 
fill-opacity="1.000000" 
stroke="none" 
/>
</g>
<g transform="
translate(99.000000,135.000000), 
scale(1.000000,1.000000)
" 
>
<polygon points="
-9.000000, 
9.000000, 
9.000000, 
9.000000, 
9.000000, 
-9.000000, 
-9.000000, 
-9.000000" 
fill="rgb(153,153,153)" 
fill-opacity="1.000000" 
stroke="none" 
/>
</g>
<g transform="
translate(117.000000,135.000000), 
scale(1.000000,1.000000)
" 
>
<polygon points="
-9.000000, 
9.000000, 
9.000000, 
9.000000, 
9.000000, 
-9.000000, 
-9.000000, 
-9.000000" 
fill="rgb(153,153,153)" 
fill-opacity="1.000000" 
stroke="none" 
/>
</g>
<g transform="
translate(135.000000,135.000000), 
scale(1.000000,1.000000)
" 
>
<polygon points="
-9.000000, 
9.000000, 
9.000000, 
9.000000, 
9.000000, 
-9.000000, 
-9.000000, 
-9.000000" 
fill="rgb(187,187,187)" 
fill-opacity="1.000000" 
stroke="none" 
/>
</g>
<g transform="
translate(153.000000,9.000000), 
scale(1.000000,1.000000)
" 
>
<polygon points="
-9.000000, 
9.000000, 
9.000000, 
9.000000, 
9.000000, 
-9.000000, 
-9.000000, 
-9.000000" 
fill="rgb(187,187,187)" 
fill-opacity="1.000000" 
stroke="none" 
/>
</g>
<g transform="
translate(171.000000,9.000000), 
scale(1.000000,1.000000)
" 
>
<polygon points="
-9.000000, 
9.000000, 
9.000000, 
9.000000, 
9.000000, 
-9.000000, 
-9.000000, 
-9.000000" 
fill="rgb(187,187,187)" 
fill-opacity="1.000000" 
stroke="none" 
/>
</g>
<g transform="
translate(153.000000,27.000000), 
scale(1.000000,1.000000)
" 
>
<polygon points="
-9.000000, 
9.000000, 
9.000000, 
9.000000, 
9.000000, 
-9.000000, 
-9.000000, 
-9.000000" 
fill="rgb(187,187,187)" 
fill-opacity="1.000000" 
stroke="none" 
/>
</g>
<g transform="
translate(171.000000,27.000000), 
scale(1.000000,1.000000)
" 
>
<polygon points="
-9.000000, 
9.000000, 
9.000000, 
9.000000, 
9.000000, 
-9.000000, 
-9.000000, 
-9.000000" 
fill="rgb(187,187,187)" 
fill-opacity="1.000000" 
stroke="none" 
/>
</g>
<g transform="
translate(153.000000,45.000000), 
scale(1.000000,1.000000)
" 
>
<polygon points="
-9.000000, 
9.000000, 
9.000000, 
9.000000, 
9.000000, 
-9.000000, 
-9.000000, 
-9.000000" 
fill="rgb(153,153,153)" 
fill-opacity="1.000000" 
stroke="none" 
/>
</g>
<g transform="
translate(171.000000,45.000000), 
scale(1.000000,1.000000)
" 
>
<polygon points="
-9.000000, 
9.000000, 
9.000000, 
9.000000, 
9.000000, 
-9.000000, 
-9.000000, 
-9.000000" 
fill="rgb(187,187,187)" 
fill-opacity="1.000000" 
stroke="none" 
/>
</g>
<g transform="
translate(153.000000,63.000000), 
scale(1.000000,1.000000)
" 
>
<polygon points="
-9.000000, 
9.000000, 
9.000000, 
9.000000, 
9.000000, 
-9.000000, 
-9.000000, 
-9.000000" 
fill="rgb(187,187,187)" 
fill-opacity="1.000000" 
stroke="none" 
/>
</g>
<g transform="
translate(171.000000,63.000000), 
scale(1.000000,1.000000)
" 
>
<polygon points="
-9.000000, 
9.000000, 
9.000000, 
9.000000, 
9.000000, 
-9.000000, 
-9.000000, 
-9.000000" 
fill="rgb(187,187,187)" 
fill-opacity="1.000000" 
stroke="none" 
/>
</g>
<g transform="
translate(153.000000,81.000000), 
scale(1.000000,1.000000)
" 
>
<polygon points="
-9.000000, 
9.000000, 
9.000000, 
9.000000, 
9.000000, 
-9.000000, 
-9.000000, 
-9.000000" 
fill="rgb(187,187,187)" 
fill-opacity="1.000000" 
stroke="none" 
/>
</g>
<g transform="
translate(171.000000,81.000000), 
scale(1.000000,1.000000)
" 
>
<polygon points="
-9.000000, 
9.000000, 
9.000000, 
9.000000, 
9.000000, 
-9.000000, 
-9.000000, 
-9.000000" 
fill="rgb(187,187,187)" 
fill-opacity="1.000000" 
stroke="none" 
/>
</g>
<g transform="
translate(153.000000,99.000000), 
scale(1.000000,1.000000)
" 
>
<polygon points="
-9.000000, 
9.000000, 
9.000000, 
9.000000, 
9.000000, 
-9.000000, 
-9.000000, 
-9.000000" 
fill="rgb(187,187,187)" 
fill-opacity="1.000000" 
stroke="none" 
/>
</g>
<g transform="
translate(171.000000,99.000000), 
scale(1.000000,1.000000)
" 
>
<polygon points="
-9.000000, 
9.000000, 
9.000000, 
9.000000, 
9.000000, 
-9.000000, 
-9.000000, 
-9.000000" 
fill="rgb(187,187,187)" 
fill-opacity="1.000000" 
stroke="none" 
/>
</g>
<g transform="
translate(153.000000,117.000000), 
scale(1.000000,1.000000)
" 
>
<polygon points="
-9.000000, 
9.000000, 
9.000000, 
9.000000, 
9.000000, 
-9.000000, 
-9.000000, 
-9.000000" 
fill="rgb(187,187,187)" 
fill-opacity="1.000000" 
stroke="none" 
/>
</g>
<g transform="
translate(171.000000,117.000000), 
scale(1.000000,1.000000)
" 
>
<polygon points="
-9.000000, 
9.000000, 
9.000000, 
9.000000, 
9.000000, 
-9.000000, 
-9.000000, 
-9.000000" 
fill="rgb(187,187,187)" 
fill-opacity="1.000000" 
stroke="none" 
/>
</g>
<g transform="
translate(153.000000,135.000000), 
scale(1.000000,1.000000)
" 
>
<polygon points="
-9.000000, 
9.000000, 
9.000000, 
9.000000, 
9.000000, 
-9.000000, 
-9.000000, 
-9.000000" 
fill="rgb(187,187,187)" 
fill-opacity="1.000000" 
stroke="none" 
/>
</g>
<g transform="
translate(171.000000,135.000000), 
scale(1.000000,1.000000)
" 
>
<polygon points="
-9.000000, 
9.000000, 
9.000000, 
9.000000, 
9.000000, 
-9.000000, 
-9.000000, 
-9.000000" 
fill="rgb(187,187,187)" 
fill-opacity="1.000000" 
stroke="none" 
/>
</g>
<g transform="
translate(9.000000,153.000000), 
scale(1.000000,1.000000)
" 
>
<polygon points="
-9.000000, 
9.000000, 
9.000000, 
9.000000, 
9.000000, 
-9.000000, 
-9.000000, 
-9.000000" 
fill="rgb(255,170,153)" 
fill-opacity="1.000000" 
stroke="none" 
/>
</g>
<g transform="
translate(81.000000,153.000000), 
scale(1.000000,1.000000)
" 
>
<polygon points="
-9.000000, 
9.000000, 
9.000000, 
9.000000, 
9.000000, 
-9.000000, 
-9.000000, 
-9.000000" 
fill="rgb(153,153,153)" 
fill-opacity="1.000000" 
stroke="none" 
/>
</g>
<g transform="
translate(99.000000,153.000000), 
scale(1.000000,1.000000)
" 
>
<polygon points="
-9.000000, 
9.000000, 
9.000000, 
9.000000, 
9.000000, 
-9.000000, 
-9.000000, 
-9.000000" 
fill="rgb(187,187,187)" 
fill-opacity="1.000000" 
stroke="none" 
/>
</g>
<g transform="
translate(117.000000,153.000000), 
scale(1.000000,1.000000)
" 
>
<polygon points="
-9.000000, 
9.000000, 
9.000000, 
9.000000, 
9.000000, 
-9.000000, 
-9.000000, 
-9.000000" 
fill="rgb(187,187,187)" 
fill-opacity="1.000000" 
stroke="none" 
/>
</g>
<g transform="
translate(135.000000,153.000000), 
scale(1.000000,1.000000)
" 
>
<polygon points="
-9.000000, 
9.000000, 
9.000000, 
9.000000, 
9.000000, 
-9.000000, 
-9.000000, 
-9.000000" 
fill="rgb(187,187,187)" 
fill-opacity="1.000000" 
stroke="none" 
/>
</g>
<g transform="
translate(9.000000,171.000000), 
scale(1.000000,1.000000)
" 
>
<polygon points="
-9.000000, 
9.000000, 
9.000000, 
9.000000, 
9.000000, 
-9.000000, 
-9.000000, 
-9.000000" 
fill="rgb(255,170,153)" 
fill-opacity="1.000000" 
stroke="none" 
/>
</g>
<g transform="
translate(81.000000,171.000000), 
scale(1.000000,1.000000)
" 
>
<polygon points="
-9.000000, 
9.000000, 
9.000000, 
9.000000, 
9.000000, 
-9.000000, 
-9.000000, 
-9.000000" 
fill="rgb(153,153,153)" 
fill-opacity="1.000000" 
stroke="none" 
/>
</g>
<g transform="
translate(99.000000,171.000000), 
scale(1.000000,1.000000)
" 
>
<polygon points="
-9.000000, 
9.000000, 
9.000000, 
9.000000, 
9.000000, 
-9.000000, 
-9.000000, 
-9.000000" 
fill="rgb(187,187,187)" 
fill-opacity="1.000000" 
stroke="none" 
/>
</g>
<g transform="
translate(117.000000,171.000000), 
scale(1.000000,1.000000)
" 
>
<polygon points="
-9.000000, 
9.000000, 
9.000000, 
9.000000, 
9.000000, 
-9.000000, 
-9.000000, 
-9.000000" 
fill="rgb(187,187,187)" 
fill-opacity="1.000000" 
stroke="none" 
/>
</g>
<g transform="
translate(135.000000,171.000000), 
scale(1.000000,1.000000)
" 
>
<polygon points="
-9.000000, 
9.000000, 
9.000000, 
9.000000, 
9.000000, 
-9.000000, 
-9.000000, 
-9.000000" 
fill="rgb(187,187,187)" 
fill-opacity="1.000000" 
stroke="none" 
/>
</g>
<g transform="
translate(9.000000,189.000000), 
scale(1.000000,1.000000)
" 
>
<polygon points="
-9.000000, 
9.000000, 
9.000000, 
9.000000, 
9.000000, 
-9.000000, 
-9.000000, 
-9.000000" 
fill="rgb(255,170,153)" 
fill-opacity="1.000000" 
stroke="none" 
/>
</g>
<g transform="
translate(27.000000,189.000000), 
scale(1.000000,1.000000)
" 
>
<polygon points="
-9.000000, 
9.000000, 
9.000000, 
9.000000, 
9.000000, 
-9.000000, 
-9.000000, 
-9.000000" 
fill="rgb(255,170,153)" 
fill-opacity="1.000000" 
stroke="none" 
/>
</g>
<g transform="
translate(63.000000,189.000000), 
scale(1.000000,1.000000)
" 
>
<polygon points="
-9.000000, 
9.000000, 
9.000000, 
9.000000, 
9.000000, 
-9.000000, 
-9.000000, 
-9.000000" 
fill="rgb(153,153,153)" 
fill-opacity="1.000000" 
stroke="none" 
/>
</g>
<g transform="
translate(81.000000,189.000000), 
scale(1.000000,1.000000)
" 
>
<polygon points="
-9.000000, 
9.000000, 
9.000000, 
9.000000, 
9.000000, 
-9.000000, 
-9.000000, 
-9.000000" 
fill="rgb(153,153,153)" 
fill-opacity="1.000000" 
stroke="none" 
/>
</g>
<g transform="
translate(99.000000,189.000000), 
scale(1.000000,1.000000)
" 
>
<polygon points="
-9.000000, 
9.000000, 
9.000000, 
9.000000, 
9.000000, 
-9.000000, 
-9.000000, 
-9.000000" 
fill="rgb(153,153,153)" 
fill-opacity="1.000000" 
stroke="none" 
/>
</g>
<g transform="
translate(117.000000,189.000000), 
scale(1.000000,1.000000)
" 
>
<polygon points="
-9.000000, 
9.000000, 
9.000000, 
9.000000, 
9.000000, 
-9.000000, 
-9.000000, 
-9.000000" 
fill="rgb(187,187,187)" 
fill-opacity="1.000000" 
stroke="none" 
/>
</g>
<g transform="
translate(135.000000,189.000000), 
scale(1.000000,1.000000)
" 
>
<polygon points="
-9.000000, 
9.000000, 
9.000000, 
9.000000, 
9.000000, 
-9.000000, 
-9.000000, 
-9.000000" 
fill="rgb(187,187,187)" 
fill-opacity="1.000000" 
stroke="none" 
/>
</g>
<g transform="
translate(9.000000,207.000000), 
scale(1.000000,1.000000)
" 
>
<polygon points="
-9.000000, 
9.000000, 
9.000000, 
9.000000, 
9.000000, 
-9.000000, 
-9.000000, 
-9.000000" 
fill="rgb(255,170,153)" 
fill-opacity="1.000000" 
stroke="none" 
/>
</g>
<g transform="
translate(27.000000,207.000000), 
scale(1.000000,1.000000)
" 
>
<polygon points="
-9.000000, 
9.000000, 
9.000000, 
9.000000, 
9.000000, 
-9.000000, 
-9.000000, 
-9.000000" 
fill="rgb(153,153,153)" 
fill-opacity="1.000000" 
stroke="none" 
/>
</g>
<g transform="
translate(45.000000,207.000000), 
scale(1.000000,1.000000)
" 
>
<polygon points="
-9.000000, 
9.000000, 
9.000000, 
9.000000, 
9.000000, 
-9.000000, 
-9.000000, 
-9.000000" 
fill="rgb(153,153,153)" 
fill-opacity="1.000000" 
stroke="none" 
/>
</g>
<g transform="
translate(63.000000,207.000000), 
scale(1.000000,1.000000)
" 
>
<polygon points="
-9.000000, 
9.000000, 
9.000000, 
9.000000, 
9.000000, 
-9.000000, 
-9.000000, 
-9.000000" 
fill="rgb(153,153,153)" 
fill-opacity="1.000000" 
stroke="none" 
/>
</g>
<g transform="
translate(81.000000,207.000000), 
scale(1.000000,1.000000)
" 
>
<polygon points="
-9.000000, 
9.000000, 
9.000000, 
9.000000, 
9.000000, 
-9.000000, 
-9.000000, 
-9.000000" 
fill="rgb(187,187,187)" 
fill-opacity="1.000000" 
stroke="none" 
/>
</g>
<g transform="
translate(99.000000,207.000000), 
scale(1.000000,1.000000)
" 
>
<polygon points="
-9.000000, 
9.000000, 
9.000000, 
9.000000, 
9.000000, 
-9.000000, 
-9.000000, 
-9.000000" 
fill="rgb(187,187,187)" 
fill-opacity="1.000000" 
stroke="none" 
/>
</g>
<g transform="
translate(117.000000,207.000000), 
scale(1.000000,1.000000)
" 
>
<polygon points="
-9.000000, 
9.000000, 
9.000000, 
9.000000, 
9.000000, 
-9.000000, 
-9.000000, 
-9.000000" 
fill="rgb(187,187,187)" 
fill-opacity="1.000000" 
stroke="none" 
/>
</g>
<g transform="
translate(135.000000,207.000000), 
scale(1.000000,1.000000)
" 
>
<polygon points="
-9.000000, 
9.000000, 
9.000000, 
9.000000, 
9.000000, 
-9.000000, 
-9.000000, 
-9.000000" 
fill="rgb(187,187,187)" 
fill-opacity="1.000000" 
stroke="none" 
/>
</g>
<g transform="
translate(27.000000,225.000000), 
scale(1.000000,1.000000)
" 
>
<polygon points="
-9.000000, 
9.000000, 
9.000000, 
9.000000, 
9.000000, 
-9.000000, 
-9.000000, 
-9.000000" 
fill="rgb(153,153,153)" 
fill-opacity="1.000000" 
stroke="none" 
/>
</g>
<g transform="
translate(45.000000,225.000000), 
scale(1.000000,1.000000)
" 
>
<polygon points="
-9.000000, 
9.000000, 
9.000000, 
9.000000, 
9.000000, 
-9.000000, 
-9.000000, 
-9.000000" 
fill="rgb(187,187,187)" 
fill-opacity="1.000000" 
stroke="none" 
/>
</g>
<g transform="
translate(63.000000,225.000000), 
scale(1.000000,1.000000)
" 
>
<polygon points="
-9.000000, 
9.000000, 
9.000000, 
9.000000, 
9.000000, 
-9.000000, 
-9.000000, 
-9.000000" 
fill="rgb(187,187,187)" 
fill-opacity="1.000000" 
stroke="none" 
/>
</g>
<g transform="
translate(81.000000,225.000000), 
scale(1.000000,1.000000)
" 
>
<polygon points="
-9.000000, 
9.000000, 
9.000000, 
9.000000, 
9.000000, 
-9.000000, 
-9.000000, 
-9.000000" 
fill="rgb(187,187,187)" 
fill-opacity="1.000000" 
stroke="none" 
/>
</g>
<g transform="
translate(99.000000,225.000000), 
scale(1.000000,1.000000)
" 
>
<polygon points="
-9.000000, 
9.000000, 
9.000000, 
9.000000, 
9.000000, 
-9.000000, 
-9.000000, 
-9.000000" 
fill="rgb(153,153,153)" 
fill-opacity="1.000000" 
stroke="none" 
/>
</g>
<g transform="
translate(117.000000,225.000000), 
scale(1.000000,1.000000)
" 
>
<polygon points="
-9.000000, 
9.000000, 
9.000000, 
9.000000, 
9.000000, 
-9.000000, 
-9.000000, 
-9.000000" 
fill="rgb(153,153,153)" 
fill-opacity="1.000000" 
stroke="none" 
/>
</g>
<g transform="
translate(135.000000,225.000000), 
scale(1.000000,1.000000)
" 
>
<polygon points="
-9.000000, 
9.000000, 
9.000000, 
9.000000, 
9.000000, 
-9.000000, 
-9.000000, 
-9.000000" 
fill="rgb(187,187,187)" 
fill-opacity="1.000000" 
stroke="none" 
/>
</g>
<g transform="
translate(27.000000,243.000000), 
scale(1.000000,1.000000)
" 
>
<polygon points="
-9.000000, 
9.000000, 
9.000000, 
9.000000, 
9.000000, 
-9.000000, 
-9.000000, 
-9.000000" 
fill="rgb(153,153,153)" 
fill-opacity="1.000000" 
stroke="none" 
/>
</g>
<g transform="
translate(45.000000,243.000000), 
scale(1.000000,1.000000)
" 
>
<polygon points="
-9.000000, 
9.000000, 
9.000000, 
9.000000, 
9.000000, 
-9.000000, 
-9.000000, 
-9.000000" 
fill="rgb(187,187,187)" 
fill-opacity="1.000000" 
stroke="none" 
/>
</g>
<g transform="
translate(63.000000,243.000000), 
scale(1.000000,1.000000)
" 
>
<polygon points="
-9.000000, 
9.000000, 
9.000000, 
9.000000, 
9.000000, 
-9.000000, 
-9.000000, 
-9.000000" 
fill="rgb(187,187,187)" 
fill-opacity="1.000000" 
stroke="none" 
/>
</g>
<g transform="
translate(81.000000,243.000000), 
scale(1.000000,1.000000)
" 
>
<polygon points="
-9.000000, 
9.000000, 
9.000000, 
9.000000, 
9.000000, 
-9.000000, 
-9.000000, 
-9.000000" 
fill="rgb(187,187,187)" 
fill-opacity="1.000000" 
stroke="none" 
/>
</g>
<g transform="
translate(99.000000,243.000000), 
scale(1.000000,1.000000)
" 
>
<polygon points="
-9.000000, 
9.000000, 
9.000000, 
9.000000, 
9.000000, 
-9.000000, 
-9.000000, 
-9.000000" 
fill="rgb(187,187,187)" 
fill-opacity="1.000000" 
stroke="none" 
/>
</g>
<g transform="
translate(117.000000,243.000000), 
scale(1.000000,1.000000)
" 
>
<polygon points="
-9.000000, 
9.000000, 
9.000000, 
9.000000, 
9.000000, 
-9.000000, 
-9.000000, 
-9.000000" 
fill="rgb(187,187,187)" 
fill-opacity="1.000000" 
stroke="none" 
/>
</g>
<g transform="
translate(135.000000,243.000000), 
scale(1.000000,1.000000)
" 
>
<polygon points="
-9.000000, 
9.000000, 
9.000000, 
9.000000, 
9.000000, 
-9.000000, 
-9.000000, 
-9.000000" 
fill="rgb(187,187,187)" 
fill-opacity="1.000000" 
stroke="none" 
/>
</g>
<g transform="
translate(9.000000,261.000000), 
scale(1.000000,1.000000)
" 
>
<polygon points="
-9.000000, 
9.000000, 
9.000000, 
9.000000, 
9.000000, 
-9.000000, 
-9.000000, 
-9.000000" 
fill="rgb(153,153,153)" 
fill-opacity="1.000000" 
stroke="none" 
/>
</g>
<g transform="
translate(27.000000,261.000000), 
scale(1.000000,1.000000)
" 
>
<polygon points="
-9.000000, 
9.000000, 
9.000000, 
9.000000, 
9.000000, 
-9.000000, 
-9.000000, 
-9.000000" 
fill="rgb(153,153,153)" 
fill-opacity="1.000000" 
stroke="none" 
/>
</g>
<g transform="
translate(45.000000,261.000000), 
scale(1.000000,1.000000)
" 
>
<polygon points="
-9.000000, 
9.000000, 
9.000000, 
9.000000, 
9.000000, 
-9.000000, 
-9.000000, 
-9.000000" 
fill="rgb(153,153,153)" 
fill-opacity="1.000000" 
stroke="none" 
/>
</g>
<g transform="
translate(63.000000,261.000000), 
scale(1.000000,1.000000)
" 
>
<polygon points="
-9.000000, 
9.000000, 
9.000000, 
9.000000, 
9.000000, 
-9.000000, 
-9.000000, 
-9.000000" 
fill="rgb(153,153,153)" 
fill-opacity="1.000000" 
stroke="none" 
/>
</g>
<g transform="
translate(81.000000,261.000000), 
scale(1.000000,1.000000)
" 
>
<polygon points="
-9.000000, 
9.000000, 
9.000000, 
9.000000, 
9.000000, 
-9.000000, 
-9.000000, 
-9.000000" 
fill="rgb(187,187,187)" 
fill-opacity="1.000000" 
stroke="none" 
/>
</g>
<g transform="
translate(99.000000,261.000000), 
scale(1.000000,1.000000)
" 
>
<polygon points="
-9.000000, 
9.000000, 
9.000000, 
9.000000, 
9.000000, 
-9.000000, 
-9.000000, 
-9.000000" 
fill="rgb(187,187,187)" 
fill-opacity="1.000000" 
stroke="none" 
/>
</g>
<g transform="
translate(117.000000,261.000000), 
scale(1.000000,1.000000)
" 
>
<polygon points="
-9.000000, 
9.000000, 
9.000000, 
9.000000, 
9.000000, 
-9.000000, 
-9.000000, 
-9.000000" 
fill="rgb(153,153,153)" 
fill-opacity="1.000000" 
stroke="none" 
/>
</g>
<g transform="
translate(135.000000,261.000000), 
scale(1.000000,1.000000)
" 
>
<polygon points="
-9.000000, 
9.000000, 
9.000000, 
9.000000, 
9.000000, 
-9.000000, 
-9.000000, 
-9.000000" 
fill="rgb(153,153,153)" 
fill-opacity="1.000000" 
stroke="none" 
/>
</g>
<g transform="
translate(9.000000,279.000000), 
scale(1.000000,1.000000)
" 
>
<polygon points="
-9.000000, 
9.000000, 
9.000000, 
9.000000, 
9.000000, 
-9.000000, 
-9.000000, 
-9.000000" 
fill="rgb(153,153,153)" 
fill-opacity="1.000000" 
stroke="none" 
/>
</g>
<g transform="
translate(27.000000,279.000000), 
scale(1.000000,1.000000)
" 
>
<polygon points="
-9.000000, 
9.000000, 
9.000000, 
9.000000, 
9.000000, 
-9.000000, 
-9.000000, 
-9.000000" 
fill="rgb(187,187,187)" 
fill-opacity="1.000000" 
stroke="none" 
/>
</g>
<g transform="
translate(45.000000,279.000000), 
scale(1.000000,1.000000)
" 
>
<polygon points="
-9.000000, 
9.000000, 
9.000000, 
9.000000, 
9.000000, 
-9.000000, 
-9.000000, 
-9.000000" 
fill="rgb(187,187,187)" 
fill-opacity="1.000000" 
stroke="none" 
/>
</g>
<g transform="
translate(63.000000,279.000000), 
scale(1.000000,1.000000)
" 
>
<polygon points="
-9.000000, 
9.000000, 
9.000000, 
9.000000, 
9.000000, 
-9.000000, 
-9.000000, 
-9.000000" 
fill="rgb(187,187,187)" 
fill-opacity="1.000000" 
stroke="none" 
/>
</g>
<g transform="
translate(81.000000,279.000000), 
scale(1.000000,1.000000)
" 
>
<polygon points="
-9.000000, 
9.000000, 
9.000000, 
9.000000, 
9.000000, 
-9.000000, 
-9.000000, 
-9.000000" 
fill="rgb(187,187,187)" 
fill-opacity="1.000000" 
stroke="none" 
/>
</g>
<g transform="
translate(99.000000,279.000000), 
scale(1.000000,1.000000)
" 
>
<polygon points="
-9.000000, 
9.000000, 
9.000000, 
9.000000, 
9.000000, 
-9.000000, 
-9.000000, 
-9.000000" 
fill="rgb(187,187,187)" 
fill-opacity="1.000000" 
stroke="none" 
/>
</g>
<g transform="
translate(117.000000,279.000000), 
scale(1.000000,1.000000)
" 
>
<polygon points="
-9.000000, 
9.000000, 
9.000000, 
9.000000, 
9.000000, 
-9.000000, 
-9.000000, 
-9.000000" 
fill="rgb(153,153,153)" 
fill-opacity="1.000000" 
stroke="none" 
/>
</g>
<g transform="
translate(135.000000,279.000000), 
scale(1.000000,1.000000)
" 
>
<polygon points="
-9.000000, 
9.000000, 
9.000000, 
9.000000, 
9.000000, 
-9.000000, 
-9.000000, 
-9.000000" 
fill="rgb(187,187,187)" 
fill-opacity="1.000000" 
stroke="none" 
/>
</g>
<g transform="
translate(153.000000,153.000000), 
scale(1.000000,1.000000)
" 
>
<polygon points="
-9.000000, 
9.000000, 
9.000000, 
9.000000, 
9.000000, 
-9.000000, 
-9.000000, 
-9.000000" 
fill="rgb(153,153,153)" 
fill-opacity="1.000000" 
stroke="none" 
/>
</g>
<g transform="
translate(171.000000,153.000000), 
scale(1.000000,1.000000)
" 
>
<polygon points="
-9.000000, 
9.000000, 
9.000000, 
9.000000, 
9.000000, 
-9.000000, 
-9.000000, 
-9.000000" 
fill="rgb(153,153,153)" 
fill-opacity="1.000000" 
stroke="none" 
/>
</g>
<g transform="
translate(153.000000,171.000000), 
scale(1.000000,1.000000)
" 
>
<polygon points="
-9.000000, 
9.000000, 
9.000000, 
9.000000, 
9.000000, 
-9.000000, 
-9.000000, 
-9.000000" 
fill="rgb(187,187,187)" 
fill-opacity="1.000000" 
stroke="none" 
/>
</g>
<g transform="
translate(171.000000,171.000000), 
scale(1.000000,1.000000)
" 
>
<polygon points="
-9.000000, 
9.000000, 
9.000000, 
9.000000, 
9.000000, 
-9.000000, 
-9.000000, 
-9.000000" 
fill="rgb(187,187,187)" 
fill-opacity="1.000000" 
stroke="none" 
/>
</g>
<g transform="
translate(153.000000,189.000000), 
scale(1.000000,1.000000)
" 
>
<polygon points="
-9.000000, 
9.000000, 
9.000000, 
9.000000, 
9.000000, 
-9.000000, 
-9.000000, 
-9.000000" 
fill="rgb(187,187,187)" 
fill-opacity="1.000000" 
stroke="none" 
/>
</g>
<g transform="
translate(171.000000,189.000000), 
scale(1.000000,1.000000)
" 
>
<polygon points="
-9.000000, 
9.000000, 
9.000000, 
9.000000, 
9.000000, 
-9.000000, 
-9.000000, 
-9.000000" 
fill="rgb(187,187,187)" 
fill-opacity="1.000000" 
stroke="none" 
/>
</g>
<g transform="
translate(153.000000,207.000000), 
scale(1.000000,1.000000)
" 
>
<polygon points="
-9.000000, 
9.000000, 
9.000000, 
9.000000, 
9.000000, 
-9.000000, 
-9.000000, 
-9.000000" 
fill="rgb(187,187,187)" 
fill-opacity="1.000000" 
stroke="none" 
/>
</g>
<g transform="
translate(171.000000,207.000000), 
scale(1.000000,1.000000)
" 
>
<polygon points="
-9.000000, 
9.000000, 
9.000000, 
9.000000, 
9.000000, 
-9.000000, 
-9.000000, 
-9.000000" 
fill="rgb(187,187,187)" 
fill-opacity="1.000000" 
stroke="none" 
/>
</g>
<g transform="
translate(153.000000,225.000000), 
scale(1.000000,1.000000)
" 
>
<polygon points="
-9.000000, 
9.000000, 
9.000000, 
9.000000, 
9.000000, 
-9.000000, 
-9.000000, 
-9.000000" 
fill="rgb(187,187,187)" 
fill-opacity="1.000000" 
stroke="none" 
/>
</g>
<g transform="
translate(171.000000,225.000000), 
scale(1.000000,1.000000)
" 
>
<polygon points="
-9.000000, 
9.000000, 
9.000000, 
9.000000, 
9.000000, 
-9.000000, 
-9.000000, 
-9.000000" 
fill="rgb(187,187,187)" 
fill-opacity="1.000000" 
stroke="none" 
/>
</g>
<g transform="
translate(153.000000,243.000000), 
scale(1.000000,1.000000)
" 
>
<polygon points="
-9.000000, 
9.000000, 
9.000000, 
9.000000, 
9.000000, 
-9.000000, 
-9.000000, 
-9.000000" 
fill="rgb(187,187,187)" 
fill-opacity="1.000000" 
stroke="none" 
/>
</g>
<g transform="
translate(171.000000,243.000000), 
scale(1.000000,1.000000)
" 
>
<polygon points="
-9.000000, 
9.000000, 
9.000000, 
9.000000, 
9.000000, 
-9.000000, 
-9.000000, 
-9.000000" 
fill="rgb(187,187,187)" 
fill-opacity="1.000000" 
stroke="none" 
/>
</g>
<g transform="
translate(153.000000,261.000000), 
scale(1.000000,1.000000)
" 
>
<polygon points="
-9.000000, 
9.000000, 
9.000000, 
9.000000, 
9.000000, 
-9.000000, 
-9.000000, 
-9.000000" 
fill="rgb(153,153,153)" 
fill-opacity="1.000000" 
stroke="none" 
/>
</g>
<g transform="
translate(171.000000,261.000000), 
scale(1.000000,1.000000)
" 
>
<polygon points="
-9.000000, 
9.000000, 
9.000000, 
9.000000, 
9.000000, 
-9.000000, 
-9.000000, 
-9.000000" 
fill="rgb(187,187,187)" 
fill-opacity="1.000000" 
stroke="none" 
/>
</g>
<g transform="
translate(153.000000,279.000000), 
scale(1.000000,1.000000)
" 
>
<polygon points="
-9.000000, 
9.000000, 
9.000000, 
9.000000, 
9.000000, 
-9.000000, 
-9.000000, 
-9.000000" 
fill="rgb(187,187,187)" 
fill-opacity="1.000000" 
stroke="none" 
/>
</g>
<g transform="
translate(171.000000,279.000000), 
scale(1.000000,1.000000)
" 
>
<polygon points="
-9.000000, 
9.000000, 
9.000000, 
9.000000, 
9.000000, 
-9.000000, 
-9.000000, 
-9.000000" 
fill="rgb(187,187,187)" 
fill-opacity="1.000000" 
stroke="none" 
/>
</g>
<g transform="
translate(-135.000000,297.000000), 
scale(1.000000,1.000000)
" 
>
<polygon points="
-9.000000, 
9.000000, 
9.000000, 
9.000000, 
9.000000, 
-9.000000, 
-9.000000, 
-9.000000" 
fill="rgb(0,153,238)" 
fill-opacity="1.000000" 
stroke="none" 
/>
</g>
<g transform="
translate(-63.000000,297.000000), 
scale(1.000000,1.000000)
" 
>
<polygon points="
-9.000000, 
9.000000, 
9.000000, 
9.000000, 
9.000000, 
-9.000000, 
-9.000000, 
-9.000000" 
fill="rgb(0,153,238)" 
fill-opacity="1.000000" 
stroke="none" 
/>
</g>
<g transform="
translate(-135.000000,315.000000), 
scale(1.000000,1.000000)
" 
>
<polygon points="
-9.000000, 
9.000000, 
9.000000, 
9.000000, 
9.000000, 
-9.000000, 
-9.000000, 
-9.000000" 
fill="rgb(0,153,238)" 
fill-opacity="1.000000" 
stroke="none" 
/>
</g>
<g transform="
translate(9.000000,297.000000), 
scale(1.000000,1.000000)
" 
>
<polygon points="
-9.000000, 
9.000000, 
9.000000, 
9.000000, 
9.000000, 
-9.000000, 
-9.000000, 
-9.000000" 
fill="rgb(153,153,153)" 
fill-opacity="1.000000" 
stroke="none" 
/>
</g>
<g transform="
translate(27.000000,297.000000), 
scale(1.000000,1.000000)
" 
>
<polygon points="
-9.000000, 
9.000000, 
9.000000, 
9.000000, 
9.000000, 
-9.000000, 
-9.000000, 
-9.000000" 
fill="rgb(187,187,187)" 
fill-opacity="1.000000" 
stroke="none" 
/>
</g>
<g transform="
translate(45.000000,297.000000), 
scale(1.000000,1.000000)
" 
>
<polygon points="
-9.000000, 
9.000000, 
9.000000, 
9.000000, 
9.000000, 
-9.000000, 
-9.000000, 
-9.000000" 
fill="rgb(187,187,187)" 
fill-opacity="1.000000" 
stroke="none" 
/>
</g>
<g transform="
translate(63.000000,297.000000), 
scale(1.000000,1.000000)
" 
>
<polygon points="
-9.000000, 
9.000000, 
9.000000, 
9.000000, 
9.000000, 
-9.000000, 
-9.000000, 
-9.000000" 
fill="rgb(187,187,187)" 
fill-opacity="1.000000" 
stroke="none" 
/>
</g>
<g transform="
translate(81.000000,297.000000), 
scale(1.000000,1.000000)
" 
>
<polygon points="
-9.000000, 
9.000000, 
9.000000, 
9.000000, 
9.000000, 
-9.000000, 
-9.000000, 
-9.000000" 
fill="rgb(187,187,187)" 
fill-opacity="1.000000" 
stroke="none" 
/>
</g>
<g transform="
translate(99.000000,297.000000), 
scale(1.000000,1.000000)
" 
>
<polygon points="
-9.000000, 
9.000000, 
9.000000, 
9.000000, 
9.000000, 
-9.000000, 
-9.000000, 
-9.000000" 
fill="rgb(187,187,187)" 
fill-opacity="1.000000" 
stroke="none" 
/>
</g>
<g transform="
translate(117.000000,297.000000), 
scale(1.000000,1.000000)
" 
>
<polygon points="
-9.000000, 
9.000000, 
9.000000, 
9.000000, 
9.000000, 
-9.000000, 
-9.000000, 
-9.000000" 
fill="rgb(187,187,187)" 
fill-opacity="1.000000" 
stroke="none" 
/>
</g>
<g transform="
translate(135.000000,297.000000), 
scale(1.000000,1.000000)
" 
>
<polygon points="
-9.000000, 
9.000000, 
9.000000, 
9.000000, 
9.000000, 
-9.000000, 
-9.000000, 
-9.000000" 
fill="rgb(187,187,187)" 
fill-opacity="1.000000" 
stroke="none" 
/>
</g>
<g transform="
translate(9.000000,315.000000), 
scale(1.000000,1.000000)
" 
>
<polygon points="
-9.000000, 
9.000000, 
9.000000, 
9.000000, 
9.000000, 
-9.000000, 
-9.000000, 
-9.000000" 
fill="rgb(153,153,153)" 
fill-opacity="1.000000" 
stroke="none" 
/>
</g>
<g transform="
translate(27.000000,315.000000), 
scale(1.000000,1.000000)
" 
>
<polygon points="
-9.000000, 
9.000000, 
9.000000, 
9.000000, 
9.000000, 
-9.000000, 
-9.000000, 
-9.000000" 
fill="rgb(187,187,187)" 
fill-opacity="1.000000" 
stroke="none" 
/>
</g>
<g transform="
translate(45.000000,315.000000), 
scale(1.000000,1.000000)
" 
>
<polygon points="
-9.000000, 
9.000000, 
9.000000, 
9.000000, 
9.000000, 
-9.000000, 
-9.000000, 
-9.000000" 
fill="rgb(187,187,187)" 
fill-opacity="1.000000" 
stroke="none" 
/>
</g>
<g transform="
translate(63.000000,315.000000), 
scale(1.000000,1.000000)
" 
>
<polygon points="
-9.000000, 
9.000000, 
9.000000, 
9.000000, 
9.000000, 
-9.000000, 
-9.000000, 
-9.000000" 
fill="rgb(187,187,187)" 
fill-opacity="1.000000" 
stroke="none" 
/>
</g>
<g transform="
translate(81.000000,315.000000), 
scale(1.000000,1.000000)
" 
>
<polygon points="
-9.000000, 
9.000000, 
9.000000, 
9.000000, 
9.000000, 
-9.000000, 
-9.000000, 
-9.000000" 
fill="rgb(187,187,187)" 
fill-opacity="1.000000" 
stroke="none" 
/>
</g>
<g transform="
translate(99.000000,315.000000), 
scale(1.000000,1.000000)
" 
>
<polygon points="
-9.000000, 
9.000000, 
9.000000, 
9.000000, 
9.000000, 
-9.000000, 
-9.000000, 
-9.000000" 
fill="rgb(187,187,187)" 
fill-opacity="1.000000" 
stroke="none" 
/>
</g>
<g transform="
translate(117.000000,315.000000), 
scale(1.000000,1.000000)
" 
>
<polygon points="
-9.000000, 
9.000000, 
9.000000, 
9.000000, 
9.000000, 
-9.000000, 
-9.000000, 
-9.000000" 
fill="rgb(187,187,187)" 
fill-opacity="1.000000" 
stroke="none" 
/>
</g>
<g transform="
translate(135.000000,315.000000), 
scale(1.000000,1.000000)
" 
>
<polygon points="
-9.000000, 
9.000000, 
9.000000, 
9.000000, 
9.000000, 
-9.000000, 
-9.000000, 
-9.000000" 
fill="rgb(187,187,187)" 
fill-opacity="1.000000" 
stroke="none" 
/>
</g>
<g transform="
translate(153.000000,297.000000), 
scale(1.000000,1.000000)
" 
>
<polygon points="
-9.000000, 
9.000000, 
9.000000, 
9.000000, 
9.000000, 
-9.000000, 
-9.000000, 
-9.000000" 
fill="rgb(187,187,187)" 
fill-opacity="1.000000" 
stroke="none" 
/>
</g>
<g transform="
translate(171.000000,297.000000), 
scale(1.000000,1.000000)
" 
>
<polygon points="
-9.000000, 
9.000000, 
9.000000, 
9.000000, 
9.000000, 
-9.000000, 
-9.000000, 
-9.000000" 
fill="rgb(187,187,187)" 
fill-opacity="1.000000" 
stroke="none" 
/>
</g>
<g transform="
translate(153.000000,315.000000), 
scale(1.000000,1.000000)
" 
>
<polygon points="
-9.000000, 
9.000000, 
9.000000, 
9.000000, 
9.000000, 
-9.000000, 
-9.000000, 
-9.000000" 
fill="rgb(187,187,187)" 
fill-opacity="1.000000" 
stroke="none" 
/>
</g>
<g transform="
translate(171.000000,315.000000), 
scale(1.000000,1.000000)
" 
>
<polygon points="
-9.000000, 
9.000000, 
9.000000, 
9.000000, 
9.000000, 
-9.000000, 
-9.000000, 
-9.000000" 
fill="rgb(187,187,187)" 
fill-opacity="1.000000" 
stroke="none" 
/>
</g>
</g>
</svg>
